<svg xmlns="http://www.w3.org/2000/svg" viewBox="0 0 160 220" fill="none" role="img" aria-label="Mirza celebrating">
  <rect x="28" y="36" width="8" height="8" fill="#A8FF60"/>
  <rect x="124" y="44" width="8" height="8" fill="#6C63FF"/>
  <rect x="20" y="64" width="4" height="4" fill="#6C63FF"/>
  <rect x="132" y="72" width="4" height="4" fill="#A8FF60"/>
  <rect x="60" y="148" width="16" height="36" fill="#2B2B2B"/>
  <rect x="56" y="180" width="24" height="8" fill="#111111"/>
  <rect x="84" y="148" width="16" height="36" fill="#242424"/>
  <rect x="80" y="180" width="24" height="8" fill="#111111"/>
  <rect x="52" y="92" width="56" height="60" fill="#1F1F1F"/>
  <rect x="76" y="100" width="8" height="40" fill="#6C63FF"/>
  <rect x="88" y="116" width="8" height="8" fill="#A8FF60"/>
  <rect x="28" y="56" width="16" height="40" fill="#1F1F1F"/>
  <rect x="28" y="44" width="16" height="16" fill="#C9936A"/>
  <rect x="116" y="56" width="16" height="40" fill="#1F1F1F"/>
  <rect x="116" y="44" width="16" height="16" fill="#C9936A"/>
  <rect x="56" y="28" width="48" height="16" fill="#1C1714"/>
  <rect x="52" y="36" width="56" height="12" fill="#1C1714"/>
  <rect x="56" y="44" width="48" height="40" fill="#C9936A"/>
  <rect x="68" y="56" width="8" height="8" fill="#111111"/>
  <rect x="84" y="56" width="8" height="8" fill="#111111"/>
  <rect x="76" y="72" width="8" height="4" fill="#A56B4A"/>
</svg>
